# xmcd
#
# Track frame offsets:
#	150
#	13347
#	25872
#	39244
#	57922
#	74986
#	91642
#	104995
#	115453
#	129656
#
# Disc length: 1936 seconds
#
# Revision: 1
# Processed by: cddbd v1.5.2PL0 Copyright (c) Steve Scherf et al.
# Submitted via: audiograbber 1.83.01
#
DISCID=91078e0a
DTITLE=Vern Gosdin - Never My Love
DYEAR=1978
DGENRE=Country
TTITLE0=Never My Love
TTITLE1=Catch the Wind
TTITLE2=Anita, You're Dreaming
TTITLE3=When I Need You
TTITLE4=I Sure Can Love You
TTITLE5=Break My Mind
TTITLE6=Forget Yesterday
TTITLE7=Without You There's a Sadness in My Song
TTITLE8=The Lady, She's Right
TTITLE9=Something's Wrong in California
EXTD=
EXTT0=
EXTT1=
EXTT2=
EXTT3=
EXTT4=
EXTT5=
EXTT6=
EXTT7=
EXTT8=
EXTT9=
PLAYORDER=
